<svg version="1.1" xmlns="http://www.w3.org/2000/svg" xmlns:xlink="http://www.w3.org/1999/xlink" width="138.02702" height="138.02702" viewBox="0,0,138.02702,138.02702"><g transform="translate(-170.98649,-110.98649)"><g data-paper-data="{&quot;isPaintingLayer&quot;:true}" fill-rule="nonzero" stroke-linejoin="miter" stroke-miterlimit="10" stroke-dasharray="" stroke-dashoffset="0" style="mix-blend-mode: normal"><g stroke="#000000" stroke-width="0" stroke-linecap="butt"><path d="M170.98649,180c0,-38.11511 30.89841,-69.01351 69.01351,-69.01351c38.11511,0 69.01351,30.89841 69.01351,69.01351c0,38.11511 -30.89841,69.01351 -69.01351,69.01351c-38.11511,0 -69.01351,-30.89841 -69.01351,-69.01351z" fill="#ffab19"/><path d="M204.5,180c0,-0.0452 71,-0.03227 71,0c0,19.60611 -15.89389,35.5 -35.5,35.5c-19.60611,0 -35.5,-15.89389 -35.5,-35.5z" fill="#ffffff"/></g><g><path d="M239.91843,207.43022c0,0 -6.75903,-4.22624 -9.65259,-7.1198c-3.10417,-3.10417 -8.38502,-10.9178 -8.38502,-10.9178v-36.82284c0,0 6.41186,1.9483 9.71616,1.9483c2.85631,0 8.96217,-1.9483 8.96217,-1.9483c0,0 5.78057,1.75347 8.76734,1.75347c2.86117,0 8.79267,-1.75347 8.79267,-1.75347v36.82284c0,0 -4.6128,6.95075 -7.53361,9.87157c-2.96128,2.96128 -10.11433,7.77638 -10.11433,7.77638z" fill="#ffffff" stroke="#ffab19" stroke-width="3.5" stroke-linecap="round"/><g stroke="none" stroke-width="1" stroke-linecap="butt"><path d="M249.31413,183.85382c-1.14084,3.16116 -4.24195,5.08257 -9.21504,5.71127c-0.22605,0.02826 -0.44857,0.04592 -0.67108,0.05298c-0.28963,0.42384 -0.66755,0.79117 -1.11259,1.07727c-1.16557,0.74526 -2.25696,1.10905 -3.33423,1.10905c-2.21458,0 -4.59869,-1.65298 -4.59869,-5.2839c0,-0.24724 0.0106,-0.56865 0.03532,-1.01369c0.0106,-0.19073 0.02119,-0.33907 0.02472,-0.44857c-0.06004,-0.2755 -0.09183,-0.55453 -0.09183,-0.83709v-1.7095c0,-0.27903 0.02826,-0.55806 0.08477,-0.83709c0.00353,-0.23665 0.01413,-0.50155 0.03179,-0.79117c-0.08477,-0.31082 -0.14834,-0.67108 -0.14834,-1.07373c0,-0.18366 0.01413,-0.36733 0.03885,-0.54746c0.13422,-0.94658 0.55453,-1.89669 1.26446,-2.65608c-0.24371,-0.68168 -0.37086,-1.40221 -0.37086,-2.1404v-1.80133c0,-0.73113 0.14481,-1.64239 0.85475,-3.90994c0.29669,-0.97484 0.39205,-1.27859 0.52274,-1.56115c0.69581,-1.56115 1.74482,-2.34173 2.50773,-2.72672c1.2468,-0.62164 2.58544,-0.93952 3.97705,-0.93952c0.64283,0 1.2574,0.06711 1.84371,0.19426c0.26137,-0.1766 0.5404,-0.32495 0.83709,-0.44857c0.37793,-0.16247 0.78058,-0.2755 1.22561,-0.34614c1.11259,-0.19073 2.28875,0.04592 3.31303,0.66755c1.07727,0.65696 2.31347,2.02031 2.1616,4.82474c-0.02472,0.49448 -0.06711,1.15497 -0.13068,2.01678c-0.00353,0.02119 -0.00353,0.04238 -0.00706,0.06358c-0.05651,0.62517 -0.13775,1.55762 -0.24724,2.79029c0.02826,0.47682 0.01766,1.01016 -0.02472,1.63886c-0.01766,0.24018 -0.05651,0.48035 -0.12009,0.71347c-0.01413,0.05298 -0.02826,0.10243 -0.04238,0.14834c0.47682,0.61104 0.80177,1.22208 1.02429,1.75188c0.20839,0.42031 0.38499,0.9042 0.5404,1.49404c0.06004,0.22252 0.0989,0.44857 0.11656,0.67815c0.15894,1.98146 0.0777,3.15056 -0.28963,4.13953z" fill="#ffab19"/><path d="M245.73125,180.02652c0.10349,1.2846 0.0823,2.1125 -0.06216,2.48548c-0.60115,1.69855 -2.62076,2.76486 -6.05812,3.20001c-1.16027,0.14517 -2.31983,-0.40371 -3.4801,-1.64663c0,0.18649 0.04132,0.74561 0.12468,1.67806c0.06216,0.68345 0.05157,1.24256 -0.03108,1.67736c-0.51815,0.3313 -0.9321,0.49731 -1.24292,0.49731c-0.47682,0 -0.71453,-0.46587 -0.71453,-1.39833c0,-0.16565 0.01024,-0.42949 0.03108,-0.79188c0.02049,-0.36203 0.03108,-0.61598 0.03108,-0.76115c0,-0.35214 -0.03108,-0.60044 -0.09325,-0.74561v-1.70879c0,-0.04132 0.01024,-0.08795 0.03108,-0.13987c0.02049,-0.05157 0.04132,-0.09819 0.06216,-0.13987c-0.02084,-0.28963 -0.0106,-0.73501 0.03108,-1.33581c0.04132,-0.37298 0.04132,-0.61069 0,-0.71453c-0.10384,-0.20662 -0.15506,-0.33095 -0.15506,-0.37263c0.0823,-0.57996 0.50755,-0.86994 1.27365,-0.86994c0.49695,0 0.79718,0.17625 0.90102,0.52804c0,0.3313 0.04132,0.81837 0.12433,1.46014c0.12468,0.74561 0.51779,1.49157 1.18075,2.23683c0.72477,0.84945 1.41846,1.24292 2.08177,1.18075c0.74561,-0.0823 1.49122,-0.25854 2.23683,-0.52804c1.03559,-0.37298 1.65687,-0.80777 1.8642,-1.30473c0.14446,-0.37298 0.21722,-0.76609 0.21722,-1.18075c0,-1.26305 -0.46587,-2.20575 -1.39797,-2.82703c-0.41466,-0.26914 -1.18075,-0.48671 -2.29934,-0.65272c-0.64212,-0.0823 -1.03594,-0.12433 -1.1804,-0.12433c-0.99426,0.02084 -1.92142,-0.30022 -2.78076,-0.96318c-0.85969,-0.66261 -1.28919,-1.42941 -1.28919,-2.29934v-1.80168c0,-0.39311 0.22782,-1.31497 0.6838,-2.76486c0.20662,-0.6838 0.32071,-1.04583 0.3419,-1.08751c0.18614,-0.43479 0.4242,-0.72477 0.71417,-0.86994c0.70393,-0.35179 1.44954,-0.52804 2.23683,-0.52804c1.53254,0 2.66138,0.62128 3.3865,1.86385c0.06216,0.06216 0.16565,0.15541 0.31082,0.27974c0.02049,-0.28963 0.06216,-0.73501 0.12433,-1.33581c-0.02084,-0.26914 -0.04168,-0.52804 -0.06216,-0.77669c0,-0.28963 0.14446,-0.48636 0.43479,-0.5902c0.08265,-0.04132 0.19673,-0.07241 0.3419,-0.09325c0.20698,-0.04132 0.42985,0.0106 0.66826,0.15506c0.2377,0.14517 0.33625,0.58031 0.29492,1.30473c-0.02084,0.45563 -0.06216,1.09775 -0.12433,1.92601c-0.06216,0.6838 -0.15506,1.72963 -0.27974,3.1382c0.04132,0.3313 0.04132,0.78729 0,1.36689c-0.10384,0.39347 -0.41466,0.5902 -0.9321,0.5902c-0.26949,0 -0.52804,-0.07241 -0.77669,-0.21722c-0.12433,-0.39311 -0.18614,-0.55947 -0.18614,-0.49731c0.04097,-0.55912 -0.07276,-1.30473 -0.3419,-2.23683c-0.22817,-0.47612 -0.54358,-1.15426 -0.94764,-2.0348c-0.40406,-0.88018 -0.9374,-1.3517 -1.6,-1.41387c-0.82861,-0.06216 -1.36689,0.21757 -1.61555,0.83885c-0.08265,0.26949 -0.19709,0.66331 -0.34155,1.18075c-0.24865,0.76645 -0.40406,1.50181 -0.46623,2.20575c-0.02084,0.22817 -0.04168,0.32141 -0.06216,0.27974c0.06216,0.41466 0.13457,0.82861 0.21757,1.24292c0.10349,0.51779 0.35744,0.91161 0.76115,1.1804c0.40406,0.26949 1.1751,0.43479 2.31453,0.49695c2.79595,0.16636 4.52522,1.13978 5.18818,2.92063c0.10313,0.166 0.20662,0.44539 0.31046,0.8385z" fill="#ffffff"/></g></g><text transform="translate(217.46669,136.43542) scale(0.5,0.5)" font-size="40" xml:space="preserve" fill="#ffffff" fill-rule="nonzero" stroke="none" stroke-width="1" stroke-linecap="butt" stroke-linejoin="miter" stroke-miterlimit="10" stroke-dasharray="" stroke-dashoffset="0" font-family="Serif" font-weight="normal" text-anchor="start" style="mix-blend-mode: normal"><tspan x="0" dy="0">荒</tspan></text><text transform="translate(271.0368,153.01745) scale(0.5,0.5)" font-size="40" xml:space="preserve" fill="#ffffff" fill-rule="nonzero" stroke="none" stroke-width="1" stroke-linecap="butt" stroke-linejoin="miter" stroke-miterlimit="10" stroke-dasharray="" stroke-dashoffset="0" font-family="Serif" font-weight="normal" text-anchor="start" style="mix-blend-mode: normal"><tspan x="0" dy="0">対</tspan></text><text transform="translate(279.0368,172.01745) scale(0.5,0.5)" font-size="40" xml:space="preserve" fill="#ffffff" fill-rule="nonzero" stroke="none" stroke-width="1" stroke-linecap="butt" stroke-linejoin="miter" stroke-miterlimit="10" stroke-dasharray="" stroke-dashoffset="0" font-family="Serif" font-weight="normal" text-anchor="start" style="mix-blend-mode: normal"><tspan x="0" dy="0">抗</tspan></text><text transform="translate(279.70347,191.9619) scale(0.5,0.5)" font-size="40" xml:space="preserve" fill="#ffffff" fill-rule="nonzero" stroke="none" stroke-width="1" stroke-linecap="butt" stroke-linejoin="miter" stroke-miterlimit="10" stroke-dasharray="" stroke-dashoffset="0" font-family="Serif" font-weight="normal" text-anchor="start" style="mix-blend-mode: normal"><tspan x="0" dy="0">プ</tspan></text><text transform="translate(277.0368,209.29524) scale(0.5,0.5)" font-size="40" xml:space="preserve" fill="#ffffff" fill-rule="nonzero" stroke="none" stroke-width="1" stroke-linecap="butt" stroke-linejoin="miter" stroke-miterlimit="10" stroke-dasharray="" stroke-dashoffset="0" font-family="Serif" font-weight="normal" text-anchor="start" style="mix-blend-mode: normal"><tspan x="0" dy="0">ロ</tspan></text><text transform="translate(265.97765,226.54757) scale(0.5,0.5)" font-size="40" xml:space="preserve" fill="#ffffff" fill-rule="nonzero" stroke="none" stroke-width="1" stroke-linecap="butt" stroke-linejoin="miter" stroke-miterlimit="10" stroke-dasharray="" stroke-dashoffset="0" font-family="Serif" font-weight="normal" text-anchor="start" style="mix-blend-mode: normal"><tspan x="0" dy="0">ジ</tspan></text><text transform="translate(251.91072,231.02427) scale(0.5,0.5)" font-size="40" xml:space="preserve" fill="#ffffff" fill-rule="nonzero" stroke="none" stroke-width="1" stroke-linecap="butt" stroke-linejoin="miter" stroke-miterlimit="10" stroke-dasharray="" stroke-dashoffset="0" font-family="Serif" font-weight="normal" text-anchor="start" style="mix-blend-mode: normal"><tspan x="0" dy="0">ェ</tspan></text><text transform="translate(235.2595,236.70172) scale(0.5,0.5)" font-size="40" xml:space="preserve" fill="#ffffff" fill-rule="nonzero" stroke="none" stroke-width="1" stroke-linecap="butt" stroke-linejoin="miter" stroke-miterlimit="10" stroke-dasharray="" stroke-dashoffset="0" font-family="Serif" font-weight="normal" text-anchor="start" style="mix-blend-mode: normal"><tspan x="0" dy="0">ク</tspan></text><text transform="translate(219.45208,234.36839) scale(0.5,0.5)" font-size="40" xml:space="preserve" fill="#ffffff" fill-rule="nonzero" stroke="none" stroke-width="1" stroke-linecap="butt" stroke-linejoin="miter" stroke-miterlimit="10" stroke-dasharray="" stroke-dashoffset="0" font-family="Serif" font-weight="normal" text-anchor="start" style="mix-blend-mode: normal"><tspan x="0" dy="0">ト</tspan></text><text transform="translate(235.94923,134.92432) scale(0.5,0.5)" font-size="40" xml:space="preserve" fill="#ffffff" fill-rule="nonzero" stroke="none" stroke-width="1" stroke-linecap="butt" stroke-linejoin="miter" stroke-miterlimit="10" stroke-dasharray="" stroke-dashoffset="0" font-family="Serif" font-weight="normal" text-anchor="start" style="mix-blend-mode: normal"><tspan x="0" dy="0">ら</tspan></text><text transform="translate(253.94923,140.25765) scale(0.5,0.5)" font-size="40" xml:space="preserve" fill="#ffffff" fill-rule="nonzero" stroke="none" stroke-width="1" stroke-linecap="butt" stroke-linejoin="miter" stroke-miterlimit="10" stroke-dasharray="" stroke-dashoffset="0" font-family="Serif" font-weight="normal" text-anchor="start" style="mix-blend-mode: normal"><tspan x="0" dy="0">し</tspan></text></g></g></svg>